<svg width="73" height="67" viewBox="0 0 73 67" fill="none" xmlns="http://www.w3.org/2000/svg">
<path d="M43.8 12.28H46.84V43H43.8V27.76L44.48 28.32H28.92L29.6 27.76V43H26.56V12.28H29.6V26.32L28.92 25.76H44.48L43.8 26.32V12.28Z" fill="url(#paint0_linear_542_3)"/>
<rect x="46" y="10.5" width="1" height="13.6" fill="url(#paint1_linear_542_3)"/>
<path d="M44.8552 25.8008L44.8787 23.9727H48.4177C49.6287 23.9727 50.6404 23.7188 51.4529 23.2109C52.2654 22.6953 52.8748 21.9766 53.281 21.0547C53.6951 20.125 53.9021 19.0352 53.9021 17.7852V16.7305C53.9021 15.4258 53.6951 14.3164 53.281 13.4023C52.8748 12.4883 52.2771 11.7891 51.488 11.3047C50.699 10.8203 49.7419 10.5781 48.6169 10.5781H44.7849V8.73828H48.6169C50.1169 8.73828 51.4294 9.06641 52.5544 9.72266C53.6873 10.3711 54.5701 11.2969 55.2029 12.5C55.8357 13.6953 56.1521 15.1133 56.1521 16.7539V17.7852C56.1521 19.4336 55.8357 20.8555 55.2029 22.0508C54.5701 23.2461 53.6755 24.1719 52.5193 24.8281C51.363 25.4766 49.9958 25.8008 48.4177 25.8008H44.8552ZM46.074 25.8008H43.8005V8.73828H46.074V25.8008Z" fill="url(#paint2_linear_542_3)"/>
<path d="M28.5648 25.75L28.5414 23.9219H25.0023C23.7914 23.9219 22.7797 23.668 21.9672 23.1602C21.1547 22.6445 20.5453 21.9258 20.139 21.0039C19.725 20.0742 19.5179 18.9844 19.5179 17.7344V16.6797C19.5179 15.375 19.725 14.2656 20.139 13.3516C20.5453 12.4375 21.1429 11.7383 21.932 11.2539C22.7211 10.7695 23.6781 10.5273 24.8031 10.5273H28.6351V8.6875H24.8031C23.3031 8.6875 21.9906 9.01562 20.8656 9.67188C19.7328 10.3203 18.85 11.2461 18.2172 12.4492C17.5844 13.6445 17.2679 15.0625 17.2679 16.7031V17.7344C17.2679 19.3828 17.5844 20.8047 18.2172 22C18.85 23.1953 19.7445 24.1211 20.9008 24.7773C22.057 25.4258 23.4242 25.75 25.0023 25.75H28.5648ZM27.3461 25.75H29.6195V8.6875H27.3461V25.75Z" fill="url(#paint3_linear_542_3)"/>
<rect x="13" y="43" width="47" height="3" rx="1.5" fill="url(#paint4_linear_542_3)"/>
<rect x="26.35" y="10.4004" width="1" height="13.6" fill="url(#paint5_linear_542_3)"/>
<defs>
<linearGradient id="paint0_linear_542_3" x1="25.5" y1="10.5" x2="52.5" y2="43" gradientUnits="userSpaceOnUse">
<stop stop-color="#ED2A91"/>
<stop offset="0.311476" stop-color="#F36755"/>
<stop offset="0.458491" stop-color="#F99F1E"/>
<stop offset="0.978179" stop-color="#EF3B81"/>
</linearGradient>
<linearGradient id="paint1_linear_542_3" x1="46.5" y1="10.5" x2="46.5" y2="24.1" gradientUnits="userSpaceOnUse">
<stop stop-color="#F14C71"/>
<stop offset="0.258181" stop-color="#F36559"/>
<stop offset="1" stop-color="#F6803E"/>
</linearGradient>
<linearGradient id="paint2_linear_542_3" x1="57.3201" y1="0.800781" x2="57.3201" y2="47.6008" gradientUnits="userSpaceOnUse">
<stop stop-color="#EE3587"/>
<stop offset="0.364888" stop-color="#F4724B"/>
<stop offset="0.70807" stop-color="#F99F1E"/>
</linearGradient>
<linearGradient id="paint3_linear_542_3" x1="16.1" y1="0.75" x2="16.1" y2="47.75" gradientUnits="userSpaceOnUse">
<stop offset="0.00478028" stop-color="#EE3587"/>
<stop offset="0.300044" stop-color="#F25B62"/>
<stop offset="0.69625" stop-color="#F99F1E"/>
</linearGradient>
<linearGradient id="paint4_linear_542_3" x1="13" y1="43" x2="63" y2="46" gradientUnits="userSpaceOnUse">
<stop offset="0.00946161" stop-color="#F04677"/>
<stop offset="0.317708" stop-color="#F57845"/>
<stop offset="0.71875" stop-color="#F99F1E"/>
<stop offset="0.883148" stop-color="#F04876"/>
</linearGradient>
<linearGradient id="paint5_linear_542_3" x1="26.85" y1="10.4004" x2="26.85" y2="24.0004" gradientUnits="userSpaceOnUse">
<stop stop-color="#F14C71"/>
<stop offset="0.5" stop-color="#F36559"/>
<stop offset="1" stop-color="#F6803E"/>
</linearGradient>
</defs>
</svg>
